# File created by Blade
# Date/Time:  Tue Jan 27 19:23:26 2015
#---------------------------------------------------------
:version 1.10
:name HOM
:units
  mass 1.0
  length 1.000000
  angle deg
:documentation
     Acclaim Skeleton File
:root
   axis xyz
   order TX TY TZ RX RY RZ
   position 0.000000 0.000000 0.000000
   orientation 0 0 0
:bonedata
   begin
      id 1
      name Spine_dum
      direction 0.000000 1.000000 0.000000
      length 6.116652
      axis 0.0 0.0 0.0 xyz
   end
   begin
      id 2
      name LeftUpLeg_dum
      direction 1.000000 0.000000 0.000000
      length 4.711765
      axis 0.0 0.0 0.0 xyz
   end
   begin
      id 3
      name RightUpLeg_dum
      direction -1.000000 0.000000 0.000000
      length 4.711765
      axis 0.0 0.0 0.0 xyz
   end
   begin
      id 4
      name Spine
      direction 0.000000 1.000000 0.000000
      length 0.000000
      axis 0.0 0.0 0.0 xyz
      dof rx ry rz
   end
   begin
      id 5
      name Spine_dum1
      direction 0.000000 1.000000 0.000000
      length 15.225563
      axis 0.0 0.0 0.0 xyz
   end
   begin
      id 6
      name Spine_dum2
      direction 0.000000 1.000000 0.000000
      length 8.977654
      axis 0.0 0.0 0.0 xyz
   end
   begin
      id 7
      name Spine_dum3
      direction 0.000000 1.000000 0.000000
      length 8.977654
      axis 0.0 0.0 0.0 xyz
   end
   begin
      id 8
      name Head
      direction 0.000000 1.000000 0.000000
      length 4.527550
      axis 0.0 0.0 0.0 xyz
      dof rx ry rz
   end
   begin
      id 9
      name LeftShoulder
      direction 1.000000 0.000000 0.000000
      length 7.110130
      axis 0.0 0.0 -90.0 xyz
      dof rx ry rz
   end
   begin
      id 10
      name LeftArm
      direction 1.000000 0.000000 0.000000
      length 10.398341
      axis 0.0 0.0 -90.0 xyz
      dof rx ry rz
   end
   begin
      id 11
      name LeftForeArm
      direction 1.000000 0.000000 0.000000
      length 8.888997
      axis 0.0 0.0 -90.0 xyz
      dof ry rz rx
   end
   begin
      id 12
      name LeftHand
      direction 0.000000 0.000000 0.000000
      length 0.000000
      axis 0.0 0.0 -90.0 xyz
      dof rx ry rz
   end
   begin
      id 13
      name LeftHand_dum1
      direction 0.000000 0.000000 0.000000
      length 0.000000
      axis 0.0 0.0 -90.0 xyz
   end
   begin
      id 14
      name LeftHand_dum2
      direction 1.000000 0.000000 0.000000
      length 3.937000
      axis 0.0 0.0 -90.0 xyz
   end
   begin
      id 15
      name LeftHandThumb1
      direction 0.000000 0.000000 1.000000
      length 3.937000
      axis 0.0 0.0 -90.0 xyz
      dof rx rz ry
   end
   begin
      id 16
      name RightShoulder
      direction -1.000000 0.000000 0.000000
      length 7.110130
      axis 0.0 0.0 90.0 xyz
      dof rx ry rz
   end
   begin
      id 17
      name RightArm
      direction -1.000000 0.000000 0.000000
      length 10.398341
      axis 0.0 0.0 90.0 xyz
      dof rx ry rz
   end
   begin
      id 18
      name RightForeArm
      direction -1.000000 0.000000 0.000000
      length 8.888997
      axis 0.0 0.0 90.0 xyz
      dof ry rz rx
   end
   begin
      id 19
      name RightHand
      direction 0.000000 0.000000 0.000000
      length 0.000000
      axis 0.0 0.0 90.0 xyz
      dof rx ry rz
   end
   begin
      id 20
      name RightHand_dum1
      direction 0.000000 0.000000 0.000000
      length 0.000000
      axis 0.0 0.0 90.0 xyz
   end
   begin
      id 21
      name RightHand_dum2
      direction -1.000000 0.000000 0.000000
      length 3.937000
      axis 0.0 0.0 90.0 xyz
   end
   begin
      id 22
      name RightHandThumb1
      direction 0.000000 0.000000 1.000000
      length 3.937000
      axis 0.0 0.0 90.0 xyz
      dof rx rz ry
   end
   begin
      id 23
      name LeftUpLeg
      direction 0.000000 -1.000000 0.000000
      length 15.510451
      axis 0.0 0.0 0.0 xyz
      dof rx ry rz
   end
   begin
      id 24
      name LeftLeg
      direction 0.000000 -1.000000 0.000000
      length 14.858061
      axis 0.0 0.0 0.0 xyz
      dof rx ry rz
   end
   begin
      id 25
      name LeftFoot
      direction 0.000000 -0.258819 0.965926
      length 5.128852
      axis 15.0 0.0 0.0 xyz
      dof rx ry rz
   end
   begin
      id 26
      name LeftToeBase
      direction 0.000000 0.000000 1.000000
      length 2.952750
      axis 0.0 0.0 0.0 xyz
      dof rx ry rz
   end
   begin
      id 27
      name RightUpLeg
      direction 0.000000 -1.000000 0.000000
      length 15.510451
      axis 0.0 0.0 0.0 xyz
      dof rx ry rz
   end
   begin
      id 28
      name RightLeg
      direction 0.000000 -1.000000 0.000000
      length 14.858061
      axis 0.0 0.0 0.0 xyz
      dof rx ry rz
   end
   begin
      id 29
      name RightFoot
      direction 0.000000 -0.258819 0.965926
      length 5.128852
      axis 15.0 0.0 0.0 xyz
      dof rx ry rz
   end
   begin
      id 30
      name RightToeBase
      direction 0.000000 0.000000 1.000000
      length 2.952750
      axis 0.0 0.0 0.0 xyz
      dof rx ry rz
   end
:hierarchy
   begin
      root Spine_dum LeftUpLeg_dum RightUpLeg_dum
      Spine_dum Spine
      LeftUpLeg_dum LeftUpLeg
      RightUpLeg_dum RightUpLeg
      Spine Spine_dum1 Spine_dum2 Spine_dum3
      Spine_dum1 Head
      Spine_dum2 LeftShoulder
      Spine_dum3 RightShoulder
      LeftShoulder LeftArm
      LeftArm LeftForeArm
      LeftForeArm LeftHand
      LeftHand LeftHand_dum1 LeftHand_dum2
      LeftHand_dum1 LeftHandThumb1
      RightShoulder RightArm
      RightArm RightForeArm
      RightForeArm RightHand
      RightHand RightHand_dum1 RightHand_dum2
      RightHand_dum1 RightHandThumb1
      LeftUpLeg LeftLeg
      LeftLeg LeftFoot
      LeftFoot LeftToeBase
      RightUpLeg RightLeg
      RightLeg RightFoot
      RightFoot RightToeBase
   end

# File created by Blade
# Date/Time:  Tue Jan 27 19:23:16 2015
# Frame Rate: 120.000 fps
#------------------------------------------------------
:FULLY-SPECIFIED
:DEGREES
1232
root 3.933050 32.304304 0.364638 -4.120013 4.270264 0.816987
Spine 0.443647 13.893599 -0.053403
Head 2.249113 -23.286425 2.808098
LeftShoulder -2.779700 -7.592608 24.316414
LeftArm -5.939241 44.649102 -104.599170
LeftForeArm 2.349142 -0.000000 12.716850
LeftHand 9.983512 -0.000000 -6.459790
LeftHandThumb1 -26.253704 0.000000 33.147579
RightShoulder -3.446873 15.364326 -42.891767
RightArm 61.446192 26.620587 108.797946
RightForeArm 32.512621 -0.000000 93.450807
RightHand 27.442515 -0.000000 -10.933522
RightHandThumb1 -24.326973 -0.000000 -32.862282
LeftUpLeg 10.134294 -1.492166 -0.818229
LeftLeg 2.287158 -0.000000 -0.000000
LeftFoot -17.797676 12.913508 -23.203988
LeftToeBase 16.751494 -0.000000 -0.000000
RightUpLeg 10.430627 -11.501451 0.366900
RightLeg -0.058771 -0.000000 0.000000
RightFoot -13.026142 -14.228354 13.753489
RightToeBase 10.515036 -0.000000 -0.000000
1233
root 3.931750 32.305819 0.362579 -4.097527 4.303547 0.818794
Spine 0.476722 13.917123 -0.037191
Head 2.233548 -23.269648 2.769970
LeftShoulder -2.773771 -7.638569 24.300548
LeftArm -5.938560 44.667963 -104.614316
LeftForeArm 2.305273 -0.000000 12.723760
LeftHand 10.014091 -0.000000 -6.514175
LeftHandThumb1 -26.253704 0.000000 33.147579
RightShoulder -3.432920 15.290198 -42.884849
RightArm 61.503093 26.582662 108.831822
RightForeArm 32.526056 -0.000000 93.544601
RightHand 27.425645 -0.000000 -10.963673
RightHandThumb1 -24.326973 -0.000000 -32.862282
LeftUpLeg 10.104698 -1.484083 -0.810575
LeftLeg 2.271970 -0.000000 -0.000000
LeftFoot -17.816347 12.875687 -23.315499
LeftToeBase 16.931753 -0.000000 -0.000000
RightUpLeg 10.414420 -11.521606 0.378179
RightLeg -0.078385 -0.000000 0.000000
RightFoot -13.000773 -14.276020 13.715150
RightToeBase 10.548422 -0.000000 -0.000000
1234
root 3.930267 32.306281 0.360868 -4.078181 4.336236 0.821795
Spine 0.520360 13.945605 -0.021794
Head 2.194875 -23.262861 2.742123
LeftShoulder -2.764811 -7.693843 24.289939
LeftArm -5.943365 44.681191 -104.640996
LeftForeArm 2.296750 -0.000000 12.740569
LeftHand 10.049104 -0.000000 -6.505325
LeftHandThumb1 -26.253704 0.000000 33.147579
RightShoulder -3.426039 15.308950 -42.881310
RightArm 61.452305 26.591589 108.827568
RightForeArm 32.416708 -0.000000 93.701006
RightHand 27.354970 -0.000000 -10.964432
RightHandThumb1 -24.326973 -0.000000 -32.862282
LeftUpLeg 10.083375 -1.508663 -0.812928
LeftLeg 2.257669 -0.000000 -0.000000
LeftFoot -17.811856 12.885580 -23.329137
LeftToeBase 17.008364 -0.000000 -0.000000
RightUpLeg 10.402103 -11.532544 0.383401
RightLeg -0.089907 -0.000000 0.000000
RightFoot -12.999688 -14.314131 13.710725
RightToeBase 10.549133 -0.000000 -0.000000
1235
root 3.927789 32.306364 0.357906 -4.041636 4.364644 0.829039
Spine 0.537156 13.972782 -0.022767
Head 2.167791 -23.255147 2.720504
LeftShoulder -2.758466 -7.722096 24.287403
LeftArm -5.922878 44.714311 -104.646147
LeftForeArm 2.328127 -0.000000 12.778268
LeftHand 10.050440 -0.000000 -6.507384
LeftHandThumb1 -26.253704 0.000000 33.147579
RightShoulder -3.403496 15.378108 -42.862805
RightArm 61.313645 26.635266 108.725069
RightForeArm 32.338385 -0.000000 93.896229
RightHand 27.346732 -0.000000 -11.004005
RightHandThumb1 -24.326973 -0.000000 -32.862282
LeftUpLeg 10.034909 -1.531246 -0.816300
LeftLeg 2.263995 -0.000000 -0.000000
LeftFoot -17.803789 12.876666 -23.352692
LeftToeBase 17.040707 -0.000000 -0.000000
RightUpLeg 10.384449 -11.441038 0.401545
RightLeg -0.136654 -0.000000 0.000000
RightFoot -13.013049 -14.378390 13.811644
RightToeBase 10.565906 -0.000000 -0.000000
1236
root 3.926207 32.306413 0.355538 -4.020209 4.386070 0.835718
Spine 0.570698 13.989929 -0.010709
Head 2.152603 -23.212868 2.681852
LeftShoulder -2.768704 -7.741461 24.275836
LeftArm -5.903705 44.794206 -104.651886
LeftForeArm 2.258546 0.000000 12.840817
LeftHand 9.987577 0.000000 -6.400826
LeftHandThumb1 -26.253704 0.000000 33.147579
RightShoulder -3.376877 15.414061 -42.859584
RightArm 61.291757 26.640565 108.834582
RightForeArm 32.081542 -0.000000 94.108168
RightHand 27.259291 0.000000 -10.839672
RightHandThumb1 -24.326973 -0.000000 -32.862282
LeftUpLeg 10.004248 -1.527431 -0.820127
LeftLeg 2.274573 -0.000000 -0.000000
LeftFoot -17.724105 12.892913 -23.176460
LeftToeBase 16.772484 -0.000000 -0.000000
RightUpLeg 10.368601 -11.428328 0.402942
RightLeg -0.148742 -0.000000 0.000000
RightFoot -13.021837 -14.384087 13.822312
RightToeBase 10.604322 -0.000000 -0.000000
1237
root 3.927709 32.307645 0.354783 -4.005585 4.418733 0.848523
Spine 0.607874 14.002943 0.002421
Head 2.141742 -23.156014 2.632387
LeftShoulder -2.774622 -7.728637 24.250561
LeftArm -5.840672 44.822407 -104.623706
LeftForeArm 2.290624 -0.000000 12.884600
LeftHand 10.058726 -0.000000 -6.379750
LeftHandThumb1 -26.253704 0.000000 33.147579
RightShoulder -3.365323 15.362865 -42.848054
RightArm 61.326889 26.613600 108.946067
RightForeArm 31.932191 -0.000000 94.349467
RightHand 27.255468 -0.000000 -10.734495
RightHandThumb1 -24.326973 -0.000000 -32.862282
LeftUpLeg 9.980638 -1.484635 -0.821401
LeftLeg 2.270367 -0.000000 -0.000000
LeftFoot -17.725338 12.825428 -23.280217
LeftToeBase 17.011187 -0.000000 -0.000000
RightUpLeg 10.365634 -11.468188 0.387168
RightLeg -0.165865 -0.000000 0.000000
RightFoot -13.018422 -14.381330 13.826872
RightToeBase 10.675131 -0.000000 -0.000000
1238
root 3.924568 32.307673 0.352457 -3.973665 4.454998 0.839309
Spine 0.619698 14.013332 0.017308
Head 2.144155 -23.098808 2.592242
LeftShoulder -2.777229 -7.723603 24.245975
LeftArm -5.788070 44.861062 -104.609776
LeftForeArm 2.250116 -0.000000 12.948956
LeftHand 9.997233 -0.000000 -6.338217
LeftHandThumb1 -26.253704 0.000000 33.147579
RightShoulder -3.329189 15.299102 -42.811414
RightArm 61.316683 26.621811 108.971746
RightForeArm 31.872595 -0.000000 94.669022
RightHand 27.310012 -0.000000 -10.794213
RightHandThumb1 -24.326973 -0.000000 -32.862282
LeftUpLeg 9.944974 -1.503544 -0.805098
LeftLeg 2.252555 -0.000000 -0.000000
LeftFoot -17.726931 12.806418 -23.324871
LeftToeBase 17.023171 -0.000000 -0.000000
RightUpLeg 10.333779 -11.498958 0.408629
RightLeg -0.169111 -0.000000 0.000000
RightFoot -13.018108 -14.403715 13.819184
RightToeBase 10.708550 -0.000000 -0.000000
1239
root 3.923488 32.307845 0.350511 -3.947922 4.487337 0.840168
Spine 0.633918 14.034625 0.038150
Head 2.170687 -23.055903 2.503688
LeftShoulder -2.759650 -7.730236 24.219104
LeftArm -5.744666 44.867923 -104.579093
LeftForeArm 2.088312 -0.000000 13.009809
LeftHand 10.072640 0.000000 -7.212484
LeftHandThumb1 -26.253704 0.000000 33.147579
RightShoulder -3.266505 15.342435 -42.784879
RightArm 61.224527 26.692033 109.045721
RightForeArm 31.752728 -0.000000 95.061834
RightHand 27.219147 -0.000000 -10.893299
RightHandThumb1 -24.326973 -0.000000 -32.862282
LeftUpLeg 9.912643 -1.535599 -0.808397
LeftLeg 2.258848 -0.000000 -0.000000
LeftFoot -17.655520 12.833033 -23.177041
LeftToeBase 16.775602 -0.000000 -0.000000
RightUpLeg 10.311324 -11.525889 0.413323
RightLeg -0.174426 -0.000000 0.000000
RightFoot -13.019056 -14.397941 13.851878
RightToeBase 10.686689 -0.000000 -0.000000
1240
root 3.923374 32.307770 0.351585 -3.936916 4.511539 0.844454
Spine 0.658469 14.068952 0.059194
Head 2.194939 -23.015409 2.390526
LeftShoulder -2.756817 -7.719625 24.204986
LeftArm -5.685021 44.896384 -104.555140
LeftForeArm 2.028869 -0.000000 13.076925
LeftHand 10.114945 -0.000000 -7.509643
LeftHandThumb1 -26.253704 0.000000 33.147579
RightShoulder -3.220417 15.384013 -42.770354
RightArm 61.139176 26.773858 109.170752
RightForeArm 31.721418 0.000000 95.474195
RightHand 27.255581 0.000000 -10.863566
RightHandThumb1 -24.326973 -0.000000 -32.862282
LeftUpLeg 9.899224 -1.478569 -0.795338
LeftLeg 2.250561 -0.000000 -0.000000
LeftFoot -17.672149 12.745321 -23.269775
LeftToeBase 16.987790 -0.000000 -0.000000
RightUpLeg 10.317454 -11.560978 0.406254
RightLeg -0.199161 -0.000000 0.000000
RightFoot -13.002800 -14.386863 13.842771
RightToeBase 10.740538 -0.000000 -0.000000
1241
root 3.923361 32.307528 0.349880 -3.910176 4.538927 0.851900
Spine 0.676392 14.101276 0.072863
Head 2.192391 -22.952704 2.258880
LeftShoulder -2.749102 -7.719877 24.194832
LeftArm -5.644344 44.928308 -104.554765
LeftForeArm 2.171764 -0.000000 13.174075
LeftHand 10.043561 0.000000 -6.340099
LeftHandThumb1 -26.253704 0.000000 33.147579
RightShoulder -3.170720 15.314990 -42.734968
RightArm 61.169544 26.825012 109.369963
RightForeArm 31.648102 -0.000000 95.972183
RightHand 27.318253 0.000000 -11.015906
RightHandThumb1 -24.326973 -0.000000 -32.862282
LeftUpLeg 9.871156 -1.440633 -0.796612
LeftLeg 2.243524 -0.000000 -0.000000
LeftFoot -17.579788 12.728808 -23.103045
LeftToeBase 16.805902 -0.000000 -0.000000
RightUpLeg 10.300031 -11.584075 0.397440
RightLeg -0.215382 -0.000000 0.000000
RightFoot -13.018041 -14.351430 13.906950
RightToeBase 10.781596 -0.000000 -0.000000
1242
root 3.920079 32.307930 0.346943 -3.868004 4.574445 0.849672
Spine 0.686520 14.130991 0.086215
Head 2.152911 -22.884216 2.110168
LeftShoulder -2.747929 -7.774489 24.179310
LeftArm -5.662422 44.929333 -104.576210
LeftForeArm 2.211341 0.000000 13.268919
LeftHand 9.978912 -0.000000 -6.016571
LeftHandThumb1 -26.253704 0.000000 33.147579
RightShoulder -3.128355 15.275666 -42.686377
RightArm 61.181922 26.907659 109.578171
RightForeArm 31.679746 0.000000 96.582233
RightHand 27.242640 0.000000 -11.181894
RightHandThumb1 -24.326973 -0.000000 -32.862282
LeftUpLeg 9.824891 -1.433564 -0.780795
LeftLeg 2.217663 -0.000000 -0.000000
LeftFoot -17.601278 12.697733 -23.204503
LeftToeBase 17.007172 -0.000000 -0.000000
RightUpLeg 10.260027 -11.613368 0.413245
RightLeg -0.224474 -0.000000 0.000000
RightFoot -13.015878 -14.360818 13.912479
RightToeBase 10.828092 -0.000000 -0.000000
1243
root 3.917875 32.308181 0.344525 -3.829418 4.613294 0.852440
Spine 0.701619 14.176944 0.100891
Head 2.104808 -22.827550 1.929294
LeftShoulder -2.743683 -7.768655 24.152168
LeftArm -5.583185 44.922115 -104.519549
LeftForeArm 2.220753 -0.000000 13.362514
LeftHand 10.016265 -0.000000 -6.088433
LeftHandThumb1 -26.253704 0.000000 33.147579
RightShoulder -3.080955 15.296875 -42.635216
RightArm 61.123585 27.032644 109.774348
RightForeArm 31.597517 -0.000000 97.300386
RightHand 27.274731 -0.000000 -11.371475
RightHandThumb1 -24.326973 -0.000000 -32.862282
LeftUpLeg 9.786647 -1.466195 -0.782229
LeftLeg 2.193632 -0.000000 -0.000000
LeftFoot -17.574837 12.718586 -23.180556
LeftToeBase 16.967715 -0.000000 -0.000000
RightUpLeg 10.225723 -11.633296 0.422489
RightLeg -0.230144 -0.000000 0.000000
RightFoot -13.016739 -14.381528 13.896553
RightToeBase 10.816942 -0.000000 -0.000000
1244
root 3.915022 32.308191 0.341956 -3.786804 4.651099 0.854050
Spine 0.712216 14.198652 0.115821
Head 2.062288 -22.714578 1.715951
LeftShoulder -2.797527 -7.739107 24.132926
LeftArm -5.468169 45.001783 -104.454014
LeftForeArm 2.236569 -0.000000 13.433309
LeftHand 9.960468 -0.000000 -6.028342
LeftHandThumb1 -26.253704 0.000000 33.147579
RightShoulder -3.036188 15.305746 -42.585830
RightArm 61.101147 27.147371 110.027859
RightForeArm 31.706726 -0.000000 98.082581
RightHand 27.347926 -0.000000 -11.546345
RightHandThumb1 -24.326973 -0.000000 -32.862282
LeftUpLeg 9.739990 -1.491491 -0.783148
LeftLeg 2.187869 -0.000000 -0.000000
LeftFoot -17.506433 12.746646 -23.035088
LeftToeBase 16.777082 -0.000000 -0.000000
RightUpLeg 10.183836 -11.657376 0.435852
RightLeg -0.233593 -0.000000 0.000000
RightFoot -13.032704 -14.395598 13.918008
RightToeBase 10.881863 -0.000000 -0.000000
